<svg id="Layer_1" xmlns="http://www.w3.org/2000/svg" version="1.1" viewBox="0 0 24 24">
  <defs>
    <style>
      .st0 {
        fill: #fff;
      }
    </style>
  </defs>
  <path class="st0" d="M8,17h8v-.55c0-.75-.37-1.35-1.1-1.79s-1.7-.66-2.9-.66-2.17.22-2.9.66-1.1,1.04-1.1,1.79v.55ZM12,13c.55,0,1.02-.2,1.41-.59s.59-.86.59-1.41-.2-1.02-.59-1.41-.86-.59-1.41-.59-1.02.2-1.41.59-.59.86-.59,1.41.2,1.02.59,1.41.86.59,1.41.59ZM4,21c-.55,0-1.02-.2-1.41-.59-.39-.39-.59-.86-.59-1.41V7c0-.55.2-1.02.59-1.41s.86-.59,1.41-.59h3.15l1.85-2h6l1.85,2h3.15c.55,0,1.02.2,1.41.59s.59.86.59,1.41v12c0,.55-.2,1.02-.59,1.41-.39.39-.86.59-1.41.59H4ZM4,19h16V7h-4.05l-1.83-2h-4.25l-1.83,2h-4.05v12Z"/>
</svg>